{"title":"Snooki.and.JWOWW.S02E06.avi","uid":8159234,"size":649277530,"categoryP":"video","categoryS":"tv_shows","magnet":"?xt=urn:btih:48abe2c4f6483e851a746fb82d73cb5d83aed044&amp;dn=Snooki.and.JWOWW.S02E06.avi&amp;tr=udp%3A%2F%2Ftracker.openbittorrent.com%3A80&amp;tr=udp%3A%2F%2Fopen.demonii.com%3A1337&amp;tr=udp%3A%2F%2Ftracker.coppersurfer.tk%3A6969&amp;tr=udp%3A%2F%2Fexodus.desync.com%3A6969","seeders":10,"leechers":1,"uploader":"jc4321234","files":1,"time":1361218579,"description":"Snooki &amp; JwoWW Season 2 Episode 6 - The Honeymoon Is Over\n\nFormat                           : AVI\nFormat/Info                      : Audio Video Interleave\nFile size                        : 619 MiB\nDuration                         : 40mn 17s\nOverall bit rate                 : 2 149 Kbps\n\nVideo\nID                               : 0\nFormat                           : mp43\nCodec ID                         : mp43\nDuration                         : 40mn 17s\nBit rate                         : 2 002 Kbps\nWidth                            : 960 pixels\nHeight                           : 540 pixels\nDisplay aspect ratio             : 16:9\nFrame rate                       : 29.970 fps\nBits/(Pixel*Frame)               : 0.129\nStream size                      : 577 MiB (93%)\n\nAudio\nID                               : 1\nFormat                           : MPEG Audio\nCodec ID                         : 55\nCodec ID/Hint                    : MP3\nDuration                         : 40mn 17s\nBit rate                         : 128 Kbps\nChannel(s)                       : 2 channels\nSampling rate                    : 48.0 KHz\nCompression mode                 : Lossy\nStream size                      : 36.9 MiB (6%)\nAlignment                        : Aligned on interleaves\nInterleave, duration             : 24 ms (0.72 video frame)","torrent":{"xt":"urn:btih:48abe2c4f6483e851a746fb82d73cb5d83aed044","amp;dn":"Snooki.and.JWOWW.S02E06.avi","amp;tr":["udp%3A%2F%2Ftracker.openbittorrent.com%3A80","udp%3A%2F%2Fopen.demonii.com%3A1337","udp%3A%2F%2Ftracker.coppersurfer.tk%3A6969","udp%3A%2F%2Fexodus.desync.com%3A6969"],"infoHash":"48abe2c4f6483e851a746fb82d73cb5d83aed044","infoHashBuffer":{"type":"Buffer","data":[72,171,226,196,246,72,62,133,26,116,111,184,45,115,203,93,131,174,208,68]},"announce":[],"urlList":[]}}